<?xml version="1.0" encoding="UTF-8"?>
<!-- Generator: Adobe Illustrator 22.0.1, SVG Export Plug-In . SVG Version: 6.00 Build 0)  -->
<svg version="1.1" id="Layer_1" xmlns="http://www.w3.org/2000/svg" xmlns:xlink="http://www.w3.org/1999/xlink" x="0px" y="0px" viewBox="0 0 795 115" style="enable-background:new 0 0 795 115;" xml:space="preserve">
<style type="text/css">
	.st0{fill:#484848;}
</style>
<g>
	<g>
		<path class="st0" d="M20.7,23.4v-3.7c0-4.1-1.9-5.8-4-5.8c-3.3,0-4.4,1.7-4.4,5.3v24.4c0,3.6,1.1,5.3,4.4,5.3c3,0,4-1.7,4-4.9    v-5.8H29v5.5C29,50.5,25,56,16.7,56C8,56,4,50.5,4,43.7V19C4,12.2,8,6.7,16.7,6.7c8.3,0,12.3,6,12.3,13.2v3.5L20.7,23.4L20.7,23.4    z"/>
		<path class="st0" d="M44.3,55.4H36V7.3h11.6c9.3,0,14,3.9,14,14.2c0,7.7-3,10.9-5.8,12.1l7,21.8h-8.4l-5.9-19.9    c-1.1,0.1-2.8,0.2-4.3,0.2L44.3,55.4L44.3,55.4z M44.3,28.9h2.9c4.5,0,6.1-1.7,6.1-7.4c0-5.7-1.7-7.4-6.1-7.4h-2.9V28.9z"/>
		<path class="st0" d="M73.5,55.4h-8l8.9-48.1h10.3l8.9,48.1h-8l-1.5-10.7H75L73.5,55.4z M76.1,37.6h6.7l-3.3-20.7h-0.1L76.1,37.6z"/>
		<path class="st0" d="M99.5,55.4V7.3h8.3v48.1H99.5z"/>
		<path class="st0" d="M126.7,31h13.5v24.4h-4l-1.5-3.6c-2.5,2.9-4.5,4.3-8.3,4.3c-6.5,0-11.1-4.7-11.1-12.3V19    c0-6.8,4-12.3,12.1-12.3c8.3,0,12.4,6,12.4,13.2V23h-7.9c0-7.2-1.5-9.1-4.7-9.1c-2,0-3.7,1.2-3.7,5.3v24.7c0,3.1,1,5.1,3.9,5.1    c3.3,0,4.5-1.9,4.5-6.7v-4.7h-5.3V31H126.7z"/>
		<path class="st0" d="M157,55.4V7.3h7.7l10.1,27.5h0.1V7.3h7.5v48.1h-7.2l-10.5-30.1h-0.1v30.1H157z"/>
		<path class="st0" d="M189.5,55.4V7.3h22.1v7.2h-13.9v12.4h10.7v7.2h-10.7v14.1h14.8v7.2L189.5,55.4L189.5,55.4z"/>
		<path class="st0" d="M233,7.3h6.8l5.6,30.7h0.1l4.6-30.7h7.7l-8.5,48.1h-6.9l-6-31.8h-0.1l-5.6,31.8h-6.9l-9.1-48.1h7.7l5.1,30.7    h0.1L233,7.3z"/>
		<path class="st0" d="M297,7.3v48.1h-7.2V17.8h-0.1l-7.5,37.6h-4l-7.5-37.6h-0.1v37.6h-7.2V7.3h10.9l5.9,28.1h0.1l5.9-28.1H297z"/>
		<path class="st0" d="M310.3,55.4h-8l8.9-48.1h10.3l8.9,48.1h-8l-1.5-10.7h-9.1L310.3,55.4z M313,37.6h6.7l-3.3-20.7h-0.1L313,37.6    z"/>
		<path class="st0" d="M344,55.4h-8.3V7.3h11.6c9.3,0,14,3.9,14,14.2c0,7.7-3,10.9-5.8,12.1l7,21.8h-8.4l-5.9-19.9    c-1.1,0.1-2.8,0.2-4.3,0.2v19.7H344z M344,28.9h2.9c4.5,0,6.1-1.7,6.1-7.4c0-5.7-1.7-7.4-6.1-7.4H344V28.9z"/>
		<path class="st0" d="M368.7,55.4V7.3h8.3v17.8h0.1l8.7-17.8h8.3l-8.9,17.9l10.1,30.2h-8.4L380,33h-0.1l-2.9,5.3v17.1H368.7z"/>
		<path class="st0" d="M418.4,31H432v24.4h-4l-1.5-3.6c-2.5,2.9-4.5,4.3-8.3,4.3c-6.5,0-11.1-4.7-11.1-12.3V19    c0-6.8,4-12.3,12.1-12.3c8.3,0,12.4,6,12.4,13.2V23h-7.9c0-7.2-1.5-9.1-4.7-9.1c-2,0-3.7,1.2-3.7,5.3v24.7c0,3.1,1,5.1,3.9,5.1    c3.3,0,4.5-1.9,4.5-6.7v-4.7h-5.3V31z"/>
		<path class="st0" d="M447.4,55.4h-8.3V7.3h11.6c9.3,0,14,3.9,14,14.2c0,7.7-3,10.9-5.8,12.1l7,21.8h-8.4l-5.9-19.9    c-1.1,0.1-2.8,0.2-4.3,0.2v19.7H447.4z M447.4,28.9h2.9c4.5,0,6.1-1.7,6.1-7.4c0-5.7-1.7-7.4-6.1-7.4h-2.9V28.9z"/>
		<path class="st0" d="M476.9,55.4h-8l8.9-48.1H488l8.9,48.1h-8l-1.5-10.7h-9.1L476.9,55.4z M479.5,37.6h6.7l-3.3-20.7h-0.1    L479.5,37.6z"/>
		<path class="st0" d="M502.4,7.3h12.3c8.5,0,13.1,4.7,13.1,14.5v19.1c0,9.9-4.5,14.5-13.1,14.5h-12.3V7.3z M510.6,48.6h2.9    c4.4,0,5.9-1.7,5.9-6.7V20.8c0-5.1-1.5-6.7-5.9-6.7h-2.9V48.6z"/>
		<path class="st0" d="M534.6,7.3h8.3v36.3c0,3.5,1.4,5.3,4.4,5.3s4.4-1.7,4.4-5.3V7.3h8.3v36c0,8.3-4.8,12.8-12.7,12.8    s-12.7-4.5-12.7-12.8V7.3z"/>
		<path class="st0" d="M572.5,55.4h-8l8.9-48.1h10.3l8.9,48.1h-8l-1.5-10.7H574L572.5,55.4z M575.2,37.6h6.7l-3.3-20.7h-0.1    L575.2,37.6z"/>
		<path class="st0" d="M600.5,14.5h-8V7.3h24.3v7.2h-8v40.9h-8.3V14.5z"/>
		<path class="st0" d="M622.2,55.4V7.3h22.1v7.2h-13.9v12.4h10.7v7.2h-10.7v14.1h14.8v7.2L622.2,55.4L622.2,55.4z"/>
		<path class="st0" d="M256.3,74.4c-0.3-4.1-2.5-5.3-4.4-5.3c-2.7,0-4.1,1.7-4.1,4.7c0,8.2,16.8,12.1,16.8,25.2    c0,7.9-5.3,12.3-13.1,12.3c-7.7,0-12.1-6.1-12.4-13.3l7.9-1.1c0.3,4.9,2.3,7.3,4.9,7.3c2.9,0,4.8-1.5,4.8-4.4    c0-9.5-16.8-12.1-16.8-25.9c0-7.7,4.7-12,12.8-12c6.7,0,10.7,4.9,11.5,11.7L256.3,74.4z"/>
		<path class="st0" d="M287.4,78.6v-3.7c0-4.1-1.9-5.8-4-5.8c-3.3,0-4.4,1.7-4.4,5.3v24.4c0,3.6,1.1,5.3,4.4,5.3c3,0,4-1.7,4-4.9    v-5.8h8.3v5.5c0,6.8-4,12.3-12.3,12.3c-8.7,0-12.7-5.5-12.7-12.3V74.1c0-6.8,4-12.3,12.7-12.3c8.3,0,12.3,6,12.3,13.2v3.5    L287.4,78.6L287.4,78.6z"/>
		<path class="st0" d="M302.8,110.6V62.5h8.3v19.6h8.8V62.5h8.3v48.1h-8.3V89.3H311v21.3H302.8z"/>
		<path class="st0" d="M335.1,74.2c0-6.8,4-12.3,12.7-12.3s12.7,5.5,12.7,12.3V99c0,6.8-4,12.3-12.7,12.3s-12.7-5.5-12.7-12.3V74.2z     M343.4,98.8c0,3.6,1.1,5.3,4.4,5.3c3.3,0,4.4-1.7,4.4-5.3V74.4c0-3.6-1.1-5.3-4.4-5.3c-3.3,0-4.4,1.7-4.4,5.3V98.8z"/>
		<path class="st0" d="M367.4,74.2c0-6.8,4-12.3,12.7-12.3s12.7,5.5,12.7,12.3V99c0,6.8-4,12.3-12.7,12.3s-12.7-5.5-12.7-12.3V74.2z     M375.6,98.8c0,3.6,1.1,5.3,4.4,5.3c3.3,0,4.4-1.7,4.4-5.3V74.4c0-3.6-1.1-5.3-4.4-5.3c-3.3,0-4.4,1.7-4.4,5.3V98.8z"/>
		<path class="st0" d="M399.6,110.6V62.5h8.3v40.9h13v7.2H399.6z"/>
		<path class="st0" d="M434.3,74.2c0-6.8,4-12.3,12.7-12.3s12.7,5.5,12.7,12.3V99c0,6.8-4,12.3-12.7,12.3s-12.7-5.5-12.7-12.3V74.2z     M442.6,98.8c0,3.6,1.1,5.3,4.4,5.3c3.3,0,4.4-1.7,4.4-5.3V74.4c0-3.6-1.1-5.3-4.4-5.3c-3.3,0-4.4,1.7-4.4,5.3V98.8z"/>
		<path class="st0" d="M466.7,110.6V62.5h23.1v7.2H475v12.4h11v7.2h-11.1v21.3H466.7z"/>
		<path class="st0" d="M500.9,104.1h1.7c3.2,0,4.3-1.3,4.3-4V62.5h8.3V101c0,6.1-2.5,10.3-11.6,10.3h-2.7V104.1z"/>
		<path class="st0" d="M522.1,74.2c0-6.8,4-12.3,12.7-12.3s12.7,5.5,12.7,12.3V99c0,6.8-4,12.3-12.7,12.3s-12.7-5.5-12.7-12.3V74.2z     M530.4,98.8c0,3.6,1.1,5.3,4.4,5.3c3.3,0,4.4-1.7,4.4-5.3V74.4c0-3.6-1.1-5.3-4.4-5.3c-3.3,0-4.4,1.7-4.4,5.3V98.8z"/>
		<path class="st0" d="M554.5,62.5h8.3v36.3c0,3.5,1.4,5.3,4.4,5.3s4.4-1.7,4.4-5.3V62.5h8.3v36c0,8.3-4.8,12.8-12.7,12.8    s-12.7-4.5-12.7-12.8V62.5z"/>
		<path class="st0" d="M595.2,110.6h-8.3V62.5h11.6c9.3,0,14,3.9,14,14.2c0,7.7-3,10.9-5.8,12.1l7,21.8h-8.4l-5.9-19.9    c-1.1,0.1-2.8,0.2-4.3,0.2v19.7H595.2z M595.2,84.1h2.9c4.5,0,6.1-1.7,6.1-7.4c0-5.7-1.7-7.4-6.1-7.4h-2.9V84.1z"/>
		<path class="st0" d="M620,110.6V62.5h7.7L637.8,90h0.1V62.5h7.5v48.1h-7.2l-10.5-30.1h-0.1v30.1H620z"/>
		<path class="st0" d="M658.8,110.6h-8l8.9-48.1H670l8.9,48.1h-8l-1.5-10.7h-9.1L658.8,110.6z M661.5,92.8h6.7l-3.3-20.7h-0.1    L661.5,92.8z"/>
		<path class="st0" d="M684.1,110.6V62.5h8.3v40.9h13v7.2H684.1z"/>
		<path class="st0" d="M710.2,110.6V62.5h8.3v48.1H710.2z"/>
		<path class="st0" d="M742,74.4c-0.3-4.1-2.5-5.3-4.4-5.3c-2.7,0-4.1,1.7-4.1,4.7c0,8.2,16.8,12.1,16.8,25.2    c0,7.9-5.3,12.3-13.1,12.3c-7.7,0-12.1-6.1-12.4-13.3l7.9-1.1c0.3,4.9,2.3,7.3,4.9,7.3c2.9,0,4.8-1.5,4.8-4.4    c0-9.5-16.8-12.1-16.8-25.9c0-7.7,4.7-12,12.8-12c6.7,0,10.7,4.9,11.5,11.7L742,74.4z"/>
		<path class="st0" d="M789.8,62.5v48.1h-7.2V73h-0.1l-7.5,37.6h-4L763.5,73h-0.1v37.6h-7.2V62.5h10.9l5.9,28.1h0.1l5.9-28.1H789.8z    "/>
	</g>
</g>
</svg>